<?xml version="1.0" standalone="no"?>
<!DOCTYPE svg PUBLIC "-//W3C//DTD SVG 20010904//EN"
 "http://www.w3.org/TR/2001/REC-SVG-20010904/DTD/svg10.dtd">
<svg version="1.0" xmlns="http://www.w3.org/2000/svg"
 width="850.000000pt" height="359.000000pt" viewBox="0 0 850.000000 359.000000"
 preserveAspectRatio="xMidYMid meet">

<g transform="translate(0.000000,359.000000) scale(0.100000,-0.100000)"
fill="#000000" stroke="none">
<path d="M776 3453 c-68 -10 -115 -74 -169 -228 -19 -55 -103 -265 -186 -467
-195 -477 -272 -681 -274 -729 -1 -42 21 -74 63 -92 14 -6 127 -13 251 -16
l226 -6 -40 -105 c-23 -60 -42 -130 -45 -162 -4 -52 -2 -59 23 -82 15 -14 42
-28 59 -31 17 -3 353 -4 746 -2 393 2 724 4 735 4 11 -1 174 -1 363 0 188 0
360 1 382 1 384 0 729 -1 745 -2 43 -1 1456 2 1478 4 12 1 42 -3 67 -9 63 -14
1182 -15 1250 0 28 6 62 21 75 32 33 29 249 567 249 619 1 35 2 36 18 21 10
-9 27 -36 39 -60 20 -41 21 -54 14 -142 -5 -53 -9 -145 -10 -204 l-3 -108
-151 -125 c-83 -68 -156 -124 -163 -124 -14 0 -193 -144 -267 -213 -56 -54
-121 -153 -121 -186 0 -14 -7 -48 -15 -76 -21 -67 -20 -215 1 -285 19 -65 67
-162 102 -207 31 -42 137 -117 205 -147 197 -87 434 -49 593 97 71 64 130 153
150 227 8 30 19 64 23 76 7 16 511 443 594 503 10 7 54 17 98 22 133 15 249
76 342 179 160 177 187 403 77 627 -49 98 -128 175 -235 227 -94 46 -151 57
-288 58 -115 2 -115 2 -198 -39 -60 -29 -122 -73 -216 -152 -73 -61 -133 -117
-134 -124 -1 -14 -282 -247 -298 -247 -16 0 -13 45 10 161 31 152 15 224 -73
323 -28 33 -37 50 -30 59 13 17 166 388 206 500 29 81 31 97 22 129 -14 48
-48 82 -95 97 -23 6 -116 11 -235 11 -108 0 -196 1 -196 3 0 2 20 58 44 124
40 109 44 125 35 160 -16 57 -53 90 -114 103 -71 15 -1250 9 -1284 -6 -18 -8
-34 -7 -64 3 -32 11 -105 13 -341 11 l-301 -3 -48 -27 -48 -27 -35 24 c-50 34
-86 37 -384 31 -146 -3 -278 -5 -295 -5 -1219 10 -1400 9 -1447 -5 -42 -12
-55 -12 -95 0 -38 11 -166 14 -702 13 -361 -1 -669 -4 -685 -6z m1364 -137 c0
-2 -38 -95 -84 -207 -46 -112 -148 -366 -226 -564 -78 -198 -155 -388 -171
-422 l-28 -63 -671 0 c-534 0 -671 3 -667 13 3 6 111 280 241 607 130 327 241
605 246 618 l10 22 675 0 c371 0 675 -2 675 -4z m1480 -1 c0 -3 -81 -206 -181
-452 -190 -472 -265 -664 -294 -750 l-17 -53 -297 0 c-164 0 -300 3 -303 6 -4
3 7 37 23 76 16 39 29 72 29 74 0 2 -27 4 -59 4 l-59 0 -29 -76 -29 -75 -299
1 c-164 0 -301 2 -303 5 -2 2 83 226 191 497 107 271 216 550 243 620 l49 128
668 0 c367 0 667 -2 667 -5z m718 -54 l37 -59 55 40 c114 82 96 79 409 76
l280 -3 -88 -215 c-48 -118 -150 -372 -226 -565 -76 -192 -151 -378 -166 -412
l-28 -63 -328 1 c-180 1 -481 5 -669 8 l-340 6 238 600 c130 330 242 610 247
623 l11 22 265 0 266 0 37 -59z m2152 57 c0 -2 -47 -120 -104 -263 l-103 -260
-99 -5 -99 -5 -42 -95 c-23 -52 -42 -98 -42 -102 -1 -5 42 -8 95 -8 88 0 96
-2 89 -17 -4 -10 -19 -52 -35 -93 -64 -172 -152 -386 -164 -398 -9 -9 -141
-12 -613 -10 l-601 3 54 135 c30 74 129 324 220 555 92 231 181 453 199 493
l34 72 605 0 c333 0 606 -1 606 -2z m1461 -1044 c295 -87 445 -418 315 -699
-57 -123 -164 -221 -290 -265 -284 -97 -592 71 -661 361 -60 254 77 502 328
595 77 29 224 33 308 8z m-601 -884 c5 0 14 -9 20 -20 12 -22 -19 -180 -40
-205 -16 -19 -64 -19 -80 0 -10 12 -9 33 5 107 19 94 42 135 72 124 8 -3 19
-6 23 -6z m-210 -188 l23 -19 -18 -92 c-19 -97 -32 -121 -69 -121 -49 0 -56
35 -30 147 23 98 49 122 94 85z m-355 -94 c104 -53 175 -169 175 -283 0 -116
-72 -230 -178 -282 -48 -24 -70 -28 -137 -28 -67 0 -89 4 -137 28 -62 30 -115
83 -150 149 -33 63 -33 203 1 268 42 81 115 143 201 171 50 17 172 4 225 -23z"/>
<path d="M880 3158 c-5 -13 -86 -214 -179 -448 -93 -234 -177 -442 -185 -462
l-16 -38 523 0 524 0 101 263 c56 144 104 270 108 280 6 16 -9 17 -267 15
l-273 -3 -33 -77 -32 -78 119 0 c66 0 120 -4 120 -8 0 -14 -51 -136 -62 -149
-8 -10 -64 -13 -219 -13 -115 0 -209 1 -209 3 0 1 45 113 99 247 l99 245 368
3 369 2 43 113 c23 61 42 115 42 120 0 4 -232 7 -515 7 l-515 0 -10 -22z"/>
<path d="M2191 2701 c-105 -264 -191 -485 -191 -490 0 -7 51 -11 150 -11 l149
0 17 32 c9 18 24 55 34 82 l17 51 212 3 212 2 -6 -22 c-4 -13 -18 -49 -31 -80
l-23 -58 153 0 153 0 66 158 c66 158 298 748 311 790 l7 22 -519 0 -520 0
-191 -479z m799 156 c0 -2 -15 -41 -34 -88 l-34 -84 -69 -3 c-37 -2 -132 -1
-210 3 l-141 7 24 66 c43 113 16 102 254 102 116 0 210 -1 210 -3z"/>
<path d="M3849 3133 c-11 -27 -24 -57 -29 -68 -27 -59 -340 -846 -340 -854 0
-7 38 -11 104 -11 97 0 106 2 121 23 16 23 215 519 215 537 0 6 37 10 95 10
l95 0 -16 -37 c-47 -113 -194 -485 -200 -509 -7 -27 -7 -27 32 -21 21 4 73 7
114 7 l75 1 84 217 c46 119 97 245 112 280 l28 62 86 0 c49 0 85 -4 85 -10 0
-5 -46 -123 -101 -262 -56 -139 -104 -261 -106 -270 -5 -16 5 -18 104 -18
l110 0 61 148 c65 157 322 809 322 817 0 3 -69 5 -153 5 l-153 0 -127 -91
c-70 -50 -131 -88 -136 -84 -6 3 -33 44 -61 90 l-51 85 -175 0 -175 0 -20 -47z"/>
<path d="M5174 2698 c-104 -260 -190 -479 -192 -486 -3 -10 90 -12 454 -10
l457 3 43 115 42 115 -298 5 -298 5 33 80 33 80 205 3 204 2 26 68 c15 37 27
70 27 73 0 3 -86 9 -191 12 -105 3 -193 8 -196 10 -2 3 10 41 27 86 l31 81
303 0 303 0 38 103 c21 56 40 108 42 115 4 9 -90 12 -449 12 l-454 0 -190
-472z"/>
<path d="M7715 2248 c-308 -59 -471 -418 -314 -695 38 -66 133 -154 202 -187
283 -133 614 37 668 344 43 246 -120 483 -368 535 -76 16 -116 17 -188 3z
m366 -173 c36 -19 69 -70 69 -108 0 -51 -80 -392 -99 -417 -75 -105 -268 -52
-272 75 0 23 -4 18 -13 -23 -20 -79 -69 -122 -141 -122 -85 0 -155 61 -155
134 0 34 30 184 75 373 9 37 55 82 95 93 82 22 166 -24 194 -105 l13 -37 6 39
c17 104 125 151 228 98z"/>
<path d="M7925 2037 c-23 -20 -32 -46 -66 -196 -41 -181 -46 -229 -29 -262 27
-50 130 -66 175 -26 22 19 32 47 65 197 54 239 52 268 -15 296 -51 21 -100 18
-130 -9z m142 -32 c31 -31 35 -40 30 -72 -15 -87 -111 -119 -168 -55 -33 37
-37 71 -12 112 35 60 99 66 150 15z m-87 -280 c59 -31 69 -107 21 -156 -89
-89 -225 40 -142 135 32 37 76 44 121 21z"/>
<path d="M7956 1981 c-25 -28 -17 -72 17 -91 24 -13 30 -13 55 0 53 30 33 110
-28 110 -15 0 -35 -9 -44 -19z"/>
<path d="M7895 1675 c-19 -18 -24 -31 -20 -48 21 -69 115 -57 115 15 0 28 -13
42 -47 52 -17 5 -29 1 -48 -19z"/>
<path d="M7633 2040 c-12 -5 -29 -19 -37 -32 -20 -32 -97 -385 -90 -414 11
-43 59 -74 114 -74 85 0 94 14 142 238 45 209 45 228 -3 264 -30 23 -94 32
-126 18z m119 -39 c68 -61 28 -166 -63 -166 -34 0 -46 6 -70 33 -83 93 40 216
133 133z m-81 -288 c85 -50 49 -183 -50 -183 -88 1 -132 109 -68 167 40 37 75
41 118 16z"/>
<path d="M7647 1972 c-36 -39 -7 -102 45 -102 25 0 58 36 58 63 0 50 -70 76
-103 39z"/>
<path d="M7600 1683 c-40 -14 -53 -69 -22 -96 58 -53 137 28 82 83 -20 20 -33
23 -60 13z"/>
<path d="M7316 1352 c-5 -8 -36 -144 -36 -158 0 -2 6 -4 13 -4 15 0 49 150 37
163 -4 5 -10 4 -14 -1z"/>
<path d="M7095 1168 c-2 -7 -9 -40 -16 -73 -6 -33 -14 -65 -16 -72 -3 -7 2
-13 11 -13 8 0 18 10 21 23 28 125 30 147 15 147 -6 0 -12 -6 -15 -12z"/>
<path d="M6525 1076 c-98 -45 -154 -137 -155 -252 0 -165 127 -283 293 -272
77 5 130 30 184 85 105 108 96 301 -19 398 -82 70 -207 86 -303 41z m92 -73
l40 -47 45 37 c25 20 52 37 60 37 18 0 108 -102 108 -122 0 -7 -21 -31 -47
-54 l-47 -41 37 -45 c20 -25 37 -52 37 -60 0 -17 -105 -108 -125 -108 -7 0
-29 20 -49 45 -21 25 -41 45 -45 45 -4 0 -26 -16 -48 -35 -23 -19 -48 -35 -56
-35 -17 0 -107 106 -107 125 0 8 21 31 47 53 l47 40 -37 45 c-20 25 -37 52
-37 60 0 19 100 106 121 107 10 0 35 -21 56 -47z"/>
<path d="M6516 975 l-38 -34 41 -49 c23 -26 41 -53 41 -58 0 -5 -22 -27 -50
-48 -53 -41 -53 -41 -8 -95 l28 -32 48 40 c27 23 53 41 58 41 6 0 29 -22 51
-50 l40 -49 42 35 41 36 -40 48 c-22 26 -40 52 -40 57 0 5 22 27 50 49 27 21
49 41 49 44 0 3 -16 22 -35 43 l-36 39 -48 -41 c-27 -23 -53 -41 -58 -41 -6 0
-27 23 -48 50 -21 28 -41 50 -44 50 -3 -1 -22 -16 -44 -35z"/>
<path d="M1080 745 l0 -565 565 0 565 0 -2 563 -3 562 -562 3 -563 2 0 -565z
m870 245 l0 -60 -250 0 -250 0 0 -65 0 -65 250 0 250 0 0 -60 0 -60 -250 0
-250 0 0 -125 0 -125 -60 0 -60 0 0 310 0 310 310 0 310 0 0 -60z"/>
<path d="M2330 745 l0 -565 565 0 565 0 -2 563 -3 562 -562 3 -563 2 0 -565z
m370 55 l0 -250 190 0 190 0 0 250 0 250 60 0 60 0 0 -310 0 -310 -310 0 -310
0 0 310 0 310 60 0 60 0 0 -250z"/>
<path d="M3580 745 l0 -565 565 0 565 0 -2 563 -3 562 -562 3 -563 2 0 -565z
m870 245 l0 -60 -250 0 -250 0 0 -65 0 -65 250 0 250 0 0 -185 0 -185 -310 0
-310 0 0 60 0 60 250 0 250 0 0 65 0 65 -250 0 -250 0 0 185 0 185 310 0 310
0 0 -60z"/>
<path d="M4830 745 l0 -565 565 0 565 0 -2 563 -3 562 -562 3 -563 2 0 -565z
m870 245 l0 -60 -250 0 -250 0 0 -65 0 -65 190 0 190 0 0 -60 0 -60 -190 0
-190 0 0 -65 0 -65 250 0 250 0 0 -60 0 -60 -310 0 -310 0 0 310 0 310 310 0
310 0 0 -60z"/>
</g>
</svg>
